<?xml version="1.0" standalone="no"?>
<!DOCTYPE svg PUBLIC "-//W3C//DTD SVG 20010904//EN"
 "http://www.w3.org/TR/2001/REC-SVG-20010904/DTD/svg10.dtd">
<svg version="1.0" xmlns="http://www.w3.org/2000/svg"
 width="669.000000pt" height="669.000000pt" viewBox="0 0 669.000000 669.000000"
 preserveAspectRatio="xMidYMid meet">
<metadata>
Created by potrace 1.11, written by Peter Selinger 2001-2013
</metadata>
<g transform="translate(0.000000,669.000000) scale(0.100000,-0.100000)"
fill="#000000" stroke="none">
<path d="M1578 4878 c-8 -13 -27 -54 -42 -93 -57 -140 -66 -153 -111 -168 -48
-17 -62 -12 -124 46 -22 20 -57 48 -77 62 l-37 25 -30 -27 c-16 -16 -38 -40
-49 -55 -33 -47 8 -36 55 14 23 24 42 37 44 31 3 -7 33 -35 67 -63 60 -47 64
-52 68 -100 9 -88 118 -274 150 -254 14 9 10 17 -47 103 -30 46 -55 89 -55 95
0 7 -3 16 -7 20 -4 3 -8 15 -10 26 -2 17 22 34 52 35 6 0 35 15 66 33 64 36
74 38 83 16 9 -23 9 -23 -21 -20 -56 5 -83 -28 -84 -102 0 -45 2 -53 26 -121
22 -60 49 -80 84 -62 12 7 26 9 31 6 19 -12 27 33 25 130 -2 94 -12 151 -37
203 -12 23 -61 32 -73 12 -3 -5 -10 -10 -16 -10 -5 0 14 45 43 100 54 103 57
106 108 87 72 -27 73 -1 1 31 -59 27 -65 27 -83 0z"/>
<path d="M5153 4743 c-7 -2 -13 -10 -13 -16 0 -6 -19 -48 -42 -94 -30 -62 -41
-96 -41 -128 1 -70 19 -86 19 -17 0 32 4 67 9 78 5 10 9 22 9 27 1 4 13 23 29
41 16 21 27 47 27 65 0 30 21 43 34 23 3 -5 42 -7 87 -6 44 2 90 -1 101 -7 10
-6 24 -8 31 -6 12 5 -30 26 -68 35 -22 5 -77 6 -115 2 -14 -2 -32 0 -40 3 -8
3 -21 3 -27 0z"/>
<path d="M5508 4673 c43 -56 59 -92 67 -153 13 -92 12 -110 -2 -138 -8 -15
-14 -28 -14 -29 7 -24 -78 -108 -123 -123 -54 -17 -126 -18 -174 -2 -53 17
-129 91 -157 149 -20 43 -32 51 -51 34 -5 -4 -27 -13 -49 -19 -47 -12 -108
-35 -115 -43 -3 -3 -31 -16 -62 -30 -63 -27 -75 -47 -52 -90 20 -39 18 -41
-18 -34 -18 3 -44 7 -58 9 -25 4 -67 12 -105 21 -18 4 -21 12 -20 60 2 75 -17
76 -29 0 -2 -16 -7 -37 -10 -46 -9 -21 12 -37 60 -44 21 -3 57 -8 79 -11 82
-12 100 -14 115 -15 9 0 22 -15 29 -32 22 -55 34 -76 53 -97 20 -21 27 -19 92
23 21 13 89 84 94 98 8 22 91 99 105 99 10 0 17 -4 17 -8 0 -8 93 -64 105 -62
3 0 6 0 8 -1 1 0 13 -2 27 -5 35 -6 50 -31 50 -79 0 -38 13 -65 32 -65 5 0 5
15 2 33 -13 64 -2 98 42 130 34 25 65 16 110 -33 54 -59 90 -53 39 6 -47 55
-50 74 -18 150 23 57 33 119 23 144 -1 3 -3 22 -6 43 -7 67 -77 197 -105 197
-6 0 3 -17 19 -37z m-415 -320 c6 -16 17 -32 24 -36 19 -12 16 -44 -7 -67 -11
-11 -18 -20 -15 -20 3 0 -4 -9 -15 -20 -11 -11 -24 -20 -30 -20 -5 0 -10 -4
-10 -9 0 -9 -128 -111 -140 -111 -4 0 -16 19 -26 43 -10 23 -21 49 -25 57 -5
12 4 15 46 17 62 1 101 20 161 75 l44 41 -20 34 c-23 39 -24 43 -10 43 6 0 16
-12 23 -27z"/>
<path d="M3049 4636 c-3 -3 -20 -8 -39 -11 -108 -18 -172 -63 -222 -158 -38
-70 -55 -81 -119 -72 -30 4 -49 3 -49 -3 0 -17 24 -30 65 -36 22 -3 41 -5 42
-6 10 -1 48 -51 58 -75 20 -47 80 -109 127 -133 63 -32 123 -40 198 -27 83 15
111 27 148 63 30 29 89 132 76 132 -4 0 -2 6 3 13 6 6 13 23 16 37 7 29 49 80
66 80 6 0 11 5 11 10 0 6 5 9 11 8 13 -3 36 28 28 37 -4 3 -30 -6 -59 -19 -29
-13 -60 -22 -69 -19 -9 4 -37 26 -63 50 -62 57 -80 55 -24 -2 69 -73 84 -159
42 -243 -47 -93 -134 -139 -246 -129 -110 9 -194 66 -230 155 -15 39 -21 140
-9 148 5 3 9 13 9 23 0 29 69 100 122 127 26 13 49 24 50 23 11 -4 78 15 78
22 0 9 -13 12 -21 5z"/>
<path d="M5300 4565 c0 -8 5 -15 10 -15 6 0 10 7 10 15 0 8 -4 15 -10 15 -5 0
-10 -7 -10 -15z"/>
<path d="M5302 4484 c-27 -19 -28 -51 -2 -59 36 -12 84 32 57 53 -26 20 -35
21 -55 6z"/>
<path d="M5110 4483 c2 -39 76 -60 110 -30 23 20 27 39 5 31 -8 -4 -15 -9 -15
-13 0 -12 -53 -7 -77 7 -13 7 -23 9 -23 5z"/>
<path d="M2905 4431 c-7 -12 12 -24 25 -16 11 7 4 25 -10 25 -5 0 -11 -4 -15
-9z"/>
<path d="M3216 4413 c-11 -11 -6 -23 9 -23 8 0 15 4 15 9 0 13 -16 22 -24 14z"/>
<path d="M2826 4389 c-8 -12 -12 -28 -9 -35 8 -20 39 -35 57 -28 18 7 31 47
22 69 -8 22 -53 18 -70 -6z"/>
<path d="M3055 4400 c-3 -5 3 -10 15 -10 12 0 18 5 15 10 -3 6 -10 10 -15 10
-5 0 -12 -4 -15 -10z"/>
<path d="M3234 4373 c-38 -27 -18 -82 28 -75 27 4 29 7 26 41 -2 27 -8 37 -23
39 -11 1 -25 -1 -31 -5z"/>
<path d="M1665 4310 c-3 -5 -13 -7 -23 -6 -26 4 -82 -22 -132 -62 -58 -47 -66
-57 -95 -117 -33 -66 -31 -115 6 -227 31 -93 33 -131 10 -190 -11 -29 0 -46
17 -25 5 6 15 29 22 49 17 46 41 57 112 51 34 -3 58 0 62 6 5 7 -3 11 -18 11
-14 0 -28 -1 -29 -2 -2 -2 -10 2 -18 8 -8 6 -27 14 -43 18 -45 11 -102 78
-116 137 -28 115 21 210 141 278 96 54 218 43 292 -26 30 -29 87 -135 87 -164
0 -31 -40 -147 -53 -152 -7 -2 -8 -8 -3 -13 5 -5 11 -4 13 4 3 6 8 12 13 12
15 0 81 -173 78 -204 -3 -30 -3 -30 -73 -31 -38 -1 -77 -3 -86 -3 -16 -2 -68
-42 -54 -42 4 0 3 -6 -2 -12 -11 -16 -10 -650 1 -691 9 -31 51 -57 93 -57 61
1 87 47 87 155 l1 80 30 3 c77 6 156 35 197 72 62 54 114 160 110 225 -5 87
-103 221 -180 246 -47 15 -67 32 -30 25 15 -2 30 -1 33 4 6 10 -41 25 -66 22
-11 -2 -20 11 -28 40 -7 24 -31 80 -53 125 -40 82 -40 83 -25 121 10 26 14 55
10 93 -3 30 -6 79 -7 109 -1 54 0 55 37 73 40 20 51 49 16 42 -12 -2 -37 -13
-56 -25 -45 -26 -61 -25 -124 6 -28 15 -66 28 -83 30 -17 1 -31 3 -31 4 0 6
-36 6 -40 0z m361 -836 c66 -32 83 -107 36 -162 -24 -28 -34 -32 -65 -30 l-37
2 -1 66 c-1 36 -2 78 -3 93 -2 17 3 31 13 37 21 12 18 13 57 -6z"/>
<path d="M2937 4308 c-7 -21 45 -83 80 -95 16 -5 40 -9 54 -8 34 2 96 41 110
68 12 22 11 22 -13 -1 -49 -45 -126 -49 -180 -11 -16 12 -33 31 -37 42 -6 16
-9 17 -14 5z"/>
<path d="M2695 4249 c2 -25 0 -29 -14 -23 -38 16 -51 16 -51 1 0 -8 10 -18 23
-21 22 -6 22 -6 -5 -27 -16 -11 -28 -27 -28 -36 0 -12 10 -9 44 11 51 30 74
33 82 11 4 -8 10 -15 16 -15 8 0 75 -45 88 -60 3 -4 26 -21 51 -39 l46 -32
-14 -52 c-22 -77 -28 -124 -28 -207 l0 -75 55 1 c30 1 89 4 130 6 41 3 83 1
92 -4 10 -5 55 -11 100 -14 46 -3 85 -8 87 -10 5 -4 -33 -5 -214 -6 -114 0
-155 -11 -174 -46 -5 -10 -10 -112 -12 -227 -1 -116 -3 -262 -4 -325 -2 -123
6 -157 48 -184 28 -19 75 -15 107 7 l25 17 -2 271 c-1 149 2 280 6 291 11 29
81 37 81 10 0 -10 7 -39 16 -65 l16 -46 -39 -39 c-34 -35 -39 -45 -35 -76 4
-39 17 -56 20 -28 5 43 10 56 31 78 37 39 120 27 153 -20 20 -29 1 -106 -27
-106 -7 0 -15 -5 -17 -10 -6 -19 -83 -14 -109 6 -30 23 -37 24 -32 4 3 -11 9
-18 13 -15 4 3 11 -2 14 -11 9 -24 8 -25 -20 -18 -20 5 -25 3 -22 -7 2 -8 21
-18 41 -23 28 -7 37 -15 37 -30 0 -49 45 -236 56 -236 18 0 27 18 17 33 -4 6
-8 14 -8 17 -1 3 -7 37 -13 75 -22 122 -22 122 -1 149 11 14 27 26 34 26 7 0
24 17 36 37 44 71 15 162 -57 182 -20 5 -42 7 -49 5 -16 -7 -30 51 -26 112 1
20 6 21 202 21 l201 1 -4 -29 c-6 -37 4 -37 18 0 10 26 15 28 63 28 28 -1 51
-6 52 -12 0 -5 1 -130 1 -276 0 -215 3 -272 14 -295 19 -36 14 -33 63 -40 50
-7 83 11 107 58 15 28 16 66 9 357 -4 179 -11 336 -16 348 -8 21 -6 22 24 20
18 -2 38 1 46 7 12 9 13 7 6 -9 -8 -17 -12 -165 -15 -615 -1 -63 -1 -122 0
-130 0 -8 -1 -33 -3 -55 -2 -22 0 -46 6 -52 5 -7 7 -13 3 -13 -4 0 3 -18 14
-40 18 -35 77 -94 97 -96 5 0 17 -5 28 -9 21 -9 96 -10 130 -2 11 3 24 6 28 6
15 2 107 94 101 102 -3 5 -1 9 4 9 10 0 11 5 16 90 4 59 8 69 44 108 45 49 60
93 56 172 -4 77 -7 85 -39 129 -53 70 -134 108 -242 112 l-51 3 -4 123 c-3
116 -4 124 -29 148 -25 25 -43 33 -82 34 -15 1 -14 5 9 26 15 14 22 25 15 25
-8 0 -7 9 3 33 14 34 16 143 2 165 -4 7 -3 12 2 12 5 0 17 -21 26 -47 l16 -48
-5 45 c-20 159 -242 205 -332 69 -21 -32 -27 -55 -29 -102 l-2 -62 6 55 c4 30
17 71 29 90 13 19 23 31 23 25 0 -5 7 0 15 12 30 43 154 55 169 17 11 -28 6
-94 -8 -129 -15 -36 -72 -79 -119 -91 -16 -3 -34 -15 -40 -25 -16 -26 -24 -24
-47 14 -11 17 -20 27 -20 22 0 -13 49 -87 64 -97 6 -4 8 -9 6 -12 -8 -7 -350
-12 -350 -4 0 4 -8 5 -18 3 -31 -6 -46 11 -47 52 0 21 -5 46 -11 57 -10 17
-12 17 -18 -7 -3 -14 -3 -33 0 -41 9 -24 -4 -50 -19 -38 -6 6 -16 10 -22 11
-5 0 -29 5 -52 12 -50 14 -58 33 -10 24 l32 -6 -29 17 c-28 16 -29 17 -11 30
10 8 24 14 29 14 6 0 4 4 -4 9 -8 6 -19 7 -25 3 -27 -17 -42 -8 -77 53 -21 35
-38 66 -38 70 0 7 -7 16 -56 73 -20 23 -40 42 -45 42 -15 0 -10 -51 11 -131
11 -41 20 -95 20 -121 l0 -48 -42 -1 c-24 0 -52 -2 -63 -4 -100 -18 -105 -18
-105 10 0 25 1 25 30 10 37 -19 35 -19 62 8 44 43 55 77 53 169 -2 105 -12
122 -66 113 -22 -4 -40 -2 -44 4 -3 6 -14 11 -23 11 -15 0 -84 47 -200 136
-19 15 -35 38 -39 55 -7 38 -21 37 -18 -2z m515 -376 c0 -6 3 -13 8 -15 4 -1
22 -32 41 -67 18 -35 29 -61 23 -57 -6 4 -27 0 -46 -8 -39 -16 -48 -11 -41 25
4 21 -4 85 -22 169 -5 24 -4 24 16 -5 11 -16 21 -35 21 -42z m1123 -709 c12
-4 25 -12 29 -18 12 -18 9 -74 -4 -83 -19 -12 -132 -11 -140 1 -13 18 -9 70 7
93 15 21 54 24 108 7z m104 -332 c-4 -84 -50 -150 -117 -170 -132 -40 -248 35
-267 173 -7 51 -6 51 69 32 44 -12 150 -13 213 -3 17 2 30 5 30 6 0 1 8 3 18
5 11 2 21 6 24 9 3 2 11 2 18 -1 10 -3 13 -20 12 -51z"/>
<path d="M3596 4225 c-37 -37 -26 -103 20 -124 71 -32 135 56 85 117 -23 26
-81 30 -105 7z m78 -34 c14 -15 15 -24 6 -40 -19 -37 -70 -23 -70 19 0 41 35
53 64 21z"/>
<path d="M1819 4183 c-27 -6 -30 -41 -6 -68 22 -24 22 -24 45 -6 36 31 8 84
-39 74z"/>
<path d="M5196 4078 c0 -62 -1 -118 -3 -125 -3 -6 -15 -10 -28 -8 -13 1 -26
-4 -29 -12 -5 -11 1 -13 25 -9 20 3 29 1 26 -7 -6 -19 -53 -20 -81 -2 -19 13
-24 23 -21 48 2 18 7 61 10 97 11 99 11 103 -5 108 -8 3 -12 1 -8 -3 4 -4 3
-15 -2 -25 -5 -9 -10 -49 -11 -89 -1 -39 -6 -74 -11 -77 -4 -3 -6 -10 -2 -15
7 -12 -27 -40 -39 -32 -4 2 -13 0 -20 -5 -21 -16 -79 -30 -152 -37 -78 -7
-208 -29 -300 -50 l-60 -14 110 5 c60 3 112 7 115 9 11 7 275 19 405 19 72 0
182 -3 245 -7 63 -5 146 -10 184 -13 38 -2 74 -7 80 -11 7 -4 8 -2 1 5 -12 13
-184 48 -280 57 -70 7 -114 25 -116 48 0 6 -2 44 -3 82 -4 90 -16 175 -25 175
-3 0 -6 -51 -5 -112z m-111 -168 c3 -5 -1 -10 -10 -10 -9 0 -13 5 -10 10 3 6
8 10 10 10 2 0 7 -4 10 -10z m-58 -6 c-3 -3 -12 -4 -19 -1 -8 3 -5 6 6 6 11 1
17 -2 13 -5z"/>
<path d="M1667 4139 c-20 -5 -47 -15 -60 -23 -26 -18 -63 -76 -48 -76 6 0 11
4 11 9 0 4 12 20 26 34 31 31 101 44 150 29 19 -6 34 -6 34 -1 0 5 -2 9 -4 9
-2 0 -19 6 -37 13 -23 10 -46 11 -72 6z"/>
<path d="M4514 4100 c0 -11 3 -20 6 -20 6 0 8 -8 12 -50 4 -35 43 -35 151 0
56 18 107 37 112 42 13 13 -68 2 -95 -12 -11 -6 -20 -8 -20 -4 0 3 -7 1 -15
-6 -8 -7 -15 -10 -15 -7 0 3 -14 2 -31 -3 -20 -6 -38 -6 -48 0 -9 5 -13 10 -9
10 10 0 -25 63 -38 67 -5 2 -10 -6 -10 -17z"/>
<path d="M1840 4064 c0 -17 22 -14 28 4 2 7 -3 12 -12 12 -9 0 -16 -7 -16 -16z"/>
<path d="M1551 4014 c0 -11 3 -14 6 -6 3 7 2 16 -1 19 -3 4 -6 -2 -5 -13z"/>
<path d="M1472 3945 c-19 -18 -20 -24 -10 -38 31 -41 86 -21 74 27 -8 32 -36
37 -64 11z"/>
<path d="M1710 3945 c-17 -21 -8 -28 15 -11 11 8 14 15 8 19 -6 4 -16 0 -23
-8z"/>
<path d="M2252 3949 c-58 -22 -63 -96 -10 -129 54 -32 108 2 108 68 0 49 -48
79 -98 61z m58 -44 c10 -12 10 -21 2 -40 -22 -47 -81 -21 -68 30 7 29 46 35
66 10z"/>
<path d="M3911 3917 c-12 -13 -23 -34 -26 -45 -2 -12 -6 -26 -10 -31 -3 -5 -1
-12 4 -15 9 -6 21 14 27 43 1 8 12 27 24 43 25 34 12 37 -19 5z"/>
<path d="M1332 3837 c-63 -121 -82 -142 -128 -142 -24 0 -39 -5 -42 -15 -3 -8
-1 -12 3 -8 4 4 17 2 28 -4 18 -9 19 -12 5 -22 -28 -20 -32 -60 -29 -281 2
-196 1 -218 -13 -205 -17 17 -47 100 -36 100 4 0 6 12 4 26 -3 30 14 84 27 84
5 0 9 5 9 10 0 18 -25 5 -44 -23 -40 -59 -29 -166 23 -225 28 -31 30 -38 29
-116 -1 -120 23 -156 102 -156 54 1 82 47 83 139 0 65 1 66 34 82 l33 16 30
-41 c66 -88 112 -152 119 -164 13 -23 82 -41 105 -28 60 33 73 77 41 134 -13
23 -33 51 -44 63 -12 13 -21 28 -21 34 0 6 -9 17 -20 25 -11 8 -20 18 -20 22
0 5 -22 37 -50 72 -27 35 -50 70 -50 78 0 8 35 51 79 96 127 131 141 150 141
183 0 65 -66 112 -118 85 -15 -8 -71 -57 -126 -110 -54 -53 -103 -93 -109 -89
-6 4 -8 0 -4 -10 4 -11 1 -17 -6 -17 -10 0 -13 20 -14 70 0 101 -21 157 -55
151 -32 -5 20 126 86 221 14 19 12 48 -3 48 -3 0 -25 -38 -49 -83z m61 -733
c-9 -24 -38 -12 -39 16 -1 14 1 29 4 34 8 14 42 -33 35 -50z"/>
<path d="M1550 3885 c-10 -13 -9 -15 9 -15 12 0 21 6 21 15 0 8 -4 15 -9 15
-5 0 -14 -7 -21 -15z"/>
<path d="M1858 3856 c-10 -7 -15 -16 -12 -19 4 -3 13 1 21 9 20 19 13 26 -9
10z"/>
<path d="M2624 3790 c3 -30 6 -70 6 -88 0 -18 4 -31 9 -27 5 3 12 2 14 -2 3
-5 -52 -7 -121 -7 -217 2 -210 13 -212 -336 0 -140 -2 -277 -3 -305 -5 -88 20
-154 62 -163 31 -6 436 -5 471 1 62 12 90 89 50 140 -28 35 -54 40 -232 40
l-156 0 -4 31 c-4 44 5 91 19 93 11 2 42 3 86 3 9 0 23 0 30 0 6 1 27 -1 45
-3 17 -2 32 0 32 4 0 4 9 5 20 2 14 -4 29 4 48 25 23 24 28 39 26 69 -2 42
-40 82 -77 84 -12 1 -63 2 -113 4 -51 1 -97 6 -103 9 -6 4 -11 32 -11 62 l0
54 160 0 c116 0 170 4 195 14 52 22 68 67 44 120 -16 35 -46 45 -149 50 -67 3
-73 13 -7 11 28 -1 63 1 77 5 24 7 23 8 -10 14 -19 4 -59 8 -88 10 -59 3 -65
7 -70 43 -2 14 -12 42 -23 62 l-20 36 5 -55z m66 -114 c0 -3 -4 -8 -10 -11 -5
-3 -10 -1 -10 4 0 6 5 11 10 11 6 0 10 -2 10 -4z"/>
<path d="M5471 3748 c-2 -24 -4 -51 -4 -60 -1 -10 -4 -18 -7 -18 -3 0 -21 -14
-40 -30 l-35 -30 -3 -207 c-2 -115 -4 -242 -5 -283 l-2 -75 -37 -1 c-21 -1
-39 -1 -40 0 -1 1 -4 130 -7 288 -6 270 -7 289 -26 307 -11 11 -37 23 -58 25
-31 4 -43 0 -70 -24 l-32 -28 -2 -204 c-1 -112 -2 -240 -2 -286 l-1 -83 -36 3
c-22 1 -39 9 -45 19 -5 10 -9 137 -9 282 0 248 -1 266 -20 289 -23 30 -62 40
-102 26 -55 -19 -53 -5 -61 -531 -2 -98 1 -181 5 -183 5 -3 6 -9 4 -13 -3 -4
8 -22 24 -39 33 -37 -2 -34 375 -34 287 -1 297 1 321 58 11 27 20 34 42 34 35
1 100 31 134 64 47 45 62 84 62 162 0 58 -4 78 -27 116 -29 50 -83 83 -150 91
-21 3 -41 7 -43 10 -3 3 -6 52 -6 109 0 97 -2 105 -26 131 -14 15 -31 27 -38
27 -6 0 -12 12 -12 28 0 98 -15 139 -21 60z m209 -403 c69 -36 101 -93 105
-185 1 -36 -44 -118 -80 -145 -33 -25 -90 -43 -117 -37 -21 4 -20 -7 -21 221
l-2 173 43 -6 c23 -3 56 -13 72 -21z"/>
<path d="M4663 3730 c-1 -44 -22 -88 -35 -74 -9 8 -36 -31 -45 -66 -5 -19 -9
-175 -8 -347 0 -300 1 -313 21 -340 29 -38 71 -49 117 -30 29 13 38 23 45 54
11 45 8 622 -3 672 -8 36 -26 61 -44 61 -15 0 -25 21 -27 60 -3 57 -4 60 -12
60 -4 0 -8 -22 -9 -50z"/>
<path d="M5802 3697 c-27 -29 -28 -71 -2 -97 11 -11 23 -20 28 -21 4 0 16 -2
27 -4 26 -5 75 38 75 66 0 23 -18 61 -34 71 -23 16 -73 8 -94 -15z m76 -16 c8
-5 12 -21 10 -37 -4 -34 -36 -44 -61 -19 -13 13 -14 20 -5 40 11 25 32 31 56
16z"/>
<path d="M3581 3399 c-78 -47 -75 -140 6 -210 60 -52 68 -75 78 -234 4 -66 3
-65 16 -65 8 0 10 37 7 131 -5 130 -2 149 32 161 5 1 18 27 28 56 20 55 17 80
-16 139 -22 39 -103 51 -151 22z m109 -9 c0 -6 5 -9 12 -7 16 3 47 -63 43 -93
-10 -79 -45 -109 -106 -91 -49 15 -79 53 -79 101 0 41 32 86 65 92 43 8 65 7
65 -2z"/>
<path d="M793 2931 c-41 -34 -27 -99 26 -120 23 -10 34 -10 53 0 51 27 61 69
27 113 -25 32 -73 35 -106 7z m75 -20 c33 -20 12 -70 -30 -71 -33 0 -43 53
-14 72 14 10 28 10 44 -1z"/>
<path d="M3504 2908 c-5 -7 18 -12 39 -9 4 0 7 -3 7 -7 0 -5 6 -9 13 -9 22 -1
101 -41 127 -65 107 -98 126 -222 50 -326 -29 -41 -83 -79 -116 -85 -10 -1
-24 -5 -29 -9 -22 -14 -155 2 -196 23 -76 38 -129 114 -129 185 0 20 -8 42
-18 52 -30 30 -35 52 -11 52 12 0 39 20 65 49 24 27 59 56 78 65 43 20 60 42
25 31 -42 -13 -73 -33 -112 -71 -22 -21 -49 -43 -60 -49 -22 -10 -37 -65 -19
-65 13 0 22 -25 29 -75 9 -72 45 -128 110 -173 49 -34 109 -48 203 -47 68 1
92 6 121 24 58 34 79 34 121 1 50 -40 86 -41 41 -1 -66 58 -72 104 -20 159 19
20 27 22 80 16 49 -6 59 -4 55 7 -3 8 -24 16 -51 19 -58 7 -91 37 -108 98 -14
51 -17 56 -69 111 -63 67 -207 130 -226 99z"/>
<path d="M2047 2770 c-15 -12 -25 -25 -22 -30 3 -5 1 -11 -4 -15 -13 -7 -3
-34 22 -62 28 -31 72 -30 101 2 63 68 -24 162 -97 105z m63 -22 c0 -5 4 -7 9
-4 18 12 19 -36 1 -54 -37 -37 -91 10 -56 49 17 19 46 24 46 9z"/>
<path d="M3440 2680 c0 -5 7 -10 16 -10 8 0 12 5 9 10 -3 6 -10 10 -16 10 -5
0 -9 -4 -9 -10z"/>
<path d="M4680 2650 c-26 -28 -37 -70 -18 -70 4 0 8 -7 8 -15 0 -34 74 -46
109 -17 41 33 33 99 -16 121 -37 17 -53 13 -83 -19z m88 -41 c6 -49 -58 -65
-73 -18 -9 27 13 51 44 47 20 -2 27 -9 29 -29z"/>
<path d="M3578 2642 c-28 -6 -21 -72 7 -72 16 0 25 12 30 39 4 23 -13 39 -37
33z"/>
<path d="M3444 2560 c-1 -33 -27 -59 -57 -60 -10 0 -16 -4 -12 -9 7 -12 42 -6
62 11 20 16 34 54 27 73 -10 24 -19 17 -20 -15z"/>
<path d="M3593 2334 c3 -3 -3 -14 -14 -25 -16 -16 -18 -32 -16 -107 2 -78 5
-93 30 -130 l27 -42 -84 2 c-73 3 -86 6 -90 21 -2 11 -2 70 0 133 3 63 3 114
0 114 -6 0 -36 -176 -40 -241 -2 -36 1 -56 8 -57 6 -1 54 -3 106 -6 52 -2 98
-5 103 -5 4 -1 6 -6 5 -13 -2 -6 15 -16 37 -22 56 -15 67 -24 56 -44 -5 -9 -8
-32 -7 -51 1 -33 3 -35 64 -52 34 -9 62 -13 62 -9 0 10 -37 33 -58 36 -24 4
-42 26 -38 48 3 11 5 21 6 21 1 0 3 7 5 16 4 24 -7 38 -35 43 -14 2 -27 5 -30
6 -3 2 -8 2 -12 1 -14 -2 -8 18 8 27 13 7 15 26 11 123 -5 133 -24 195 -57
186 -15 -4 -20 0 -20 14 0 11 -7 19 -17 19 -9 0 -14 -3 -10 -6z"/>
<path d="M3219 1989 c31 -69 38 -72 104 -45 37 15 76 23 108 22 27 0 49 2 49
6 0 5 -6 9 -12 10 -7 0 -24 2 -38 4 -14 2 -34 5 -45 7 -11 2 -39 -5 -62 -16
-35 -17 -44 -18 -57 -7 -9 7 -16 18 -16 26 0 12 -29 34 -44 34 -3 0 3 -18 13
-41z"/>
</g>
</svg>
